<svg version="1.1"
	 xmlns="http://www.w3.org/2000/svg" xmlns:xlink="http://www.w3.org/1999/xlink" xmlns:a="http://ns.adobe.com/AdobeSVGViewerExtensions/3.0/"
	 x="0px" y="0px" width="202px" height="151px" viewBox="177.163 265.558 202 151"
	 overflow="visible" enable-background="new 177.163 265.558 202 151" xml:space="preserve">
<defs>
</defs>
<rect x="14.667" y="345.469" display="none" width="482.993" height="216.162"/>
<rect x="5.564" display="none" width="482.994" height="321.769"/>
<path display="none"  d="M197.521,252.761l19.722-29.629h14.06l-15.098,22.458l18.872,40.48h-16.229L206.392,258.8
	l-8.87,12.833v14.438h-14.437v-62.938h14.437V252.761z"/>
<path display="none" d="M254.511,286.07h-14.72v-62.938h14.72V286.07z"/>
<path display="none" d="M304.708,273.615v12.455h-39.914v-62.938h14.909v50.483H304.708z"/>
<path display="none" d="M349.904,273.615v12.455H309.99v-62.938h14.909v50.483H349.904z"/>
<path display="none" d="M230.253,439.621h-14.438v-25.949h-19.722v25.949h-14.437v-62.938h14.437v24.533h19.722
	v-24.533h14.438V439.621z"/>
<path display="none" d="M284.127,384.892c4.624,6.322,7.171,14.626,7.171,23.685c0,8.21-2.642,16.985-6.982,22.835
	c-4.435,5.851-11.606,9.153-20.099,9.153c-8.209,0-14.814-3.114-19.344-9.059c-4.717-6.228-7.265-14.438-7.265-23.59
	c0-8.965,2.548-17.174,7.077-23.024c4.623-5.944,11.512-9.152,20.004-9.152S279.598,378.759,284.127,384.892z M255.725,393.195
	c-1.698,3.586-2.736,9.059-2.736,14.909c0,13.683,3.868,20.477,11.7,20.477c7.549,0,11.229-6.7,11.229-20.382
	c0-13.683-3.681-20.477-11.323-20.477C260.443,387.723,257.518,389.516,255.725,393.195z"/>
<path display="none" d="M342.155,384.892c4.624,6.322,7.171,14.626,7.171,23.685c0,8.21-2.642,16.985-6.982,22.835
	c-4.435,5.851-11.606,9.153-20.099,9.153c-8.209,0-14.814-3.114-19.344-9.059c-4.718-6.228-7.266-14.438-7.266-23.59
	c0-8.965,2.548-17.174,7.077-23.024c4.623-5.944,11.512-9.152,20.004-9.152S337.625,378.759,342.155,384.892z M313.752,393.195
	c-1.698,3.586-2.736,9.059-2.736,14.909c0,13.683,3.868,20.477,11.7,20.477c7.549,0,11.229-6.7,11.229-20.382
	c0-13.683-3.681-20.477-11.323-20.477C318.47,387.723,315.545,389.516,313.752,393.195z"/>
<path display="none" d="M395.842,389.138h-15.569v50.483h-14.909v-50.483H349.7v-12.455h46.143V389.138z"/>
<path d="M205.097,275.252c-2.573,0-3.859,1.287-3.859,3.862v21.889
	c0,0,0,1.287,1.287,1.287c-6.432,9.013-7.718,11.588-3.859,11.588c23.155,0,15.437,19.314,9.005,33.477
	c-5.146,7.725-10.291,15.451-15.437,21.889c-2.573,3.863-18.009,30.901-9.004,34.765h1.286c-1.286,0-1.286,1.287-1.286,2.574v3.863
	c0,1.287,0,2.575,2.573,2.575h52.741c1.287,0,2.573-1.288,2.573-2.575v-3.863c0-1.287-1.286-2.574-2.573-2.574h-6.432
	c5.146,0,7.719,0,7.719,0s1.286-9.014,0-14.163c0-3.863,5.145-7.726,7.718-12.876c2.573-3.862-1.286-16.738,1.286-20.601
	c2.573-3.863,9.005-6.438,11.578-5.15c1.286,0,59.173,0,59.173,0v-5.15c-2.572-1.287-3.858-5.15-3.858-10.301v-14.163
	c0-5.15,2.572-6.438,7.719-5.15h34.731c9.005,0,11.578,1.288,11.578-7.726v-3.863h1.285c1.287,0,3.859-2.575,3.859-3.862v-2.575l0,0
	c1.287,0,1.287,0,1.287,0V281.69c0-1.287,0-1.287-1.287-1.287l0,0v-1.288c0-2.575-2.572-3.862-3.859-3.862h-3.858v-3.863h-5.146
	l-2.573,3.863h-47.596v1.287v1.288h-41.165l-1.285-1.288v-1.287h-39.878l-3.859-6.438h-7.719v6.438H205.097L205.097,275.252z
	 M300.29,317.742c6.432,0,10.291,3.862,10.291,10.3v7.725c0,5.15-3.859,10.301-10.291,10.301h-29.588
	c-6.432,0-11.577-5.15-11.577-10.301v-7.725c0-2.575,1.287-3.862,2.573-6.438c0,2.576,1.286,10.301,6.432,15.451
	c5.146,6.438,6.432,6.438,6.432,6.438l2.573-2.576c0,0-1.286-2.575-2.573-5.15c-1.286-2.574-2.572-10.3,1.287-18.025H300.29z"/>
<rect x="5.564" display="none" width="482.994" height="321.769"/>
</svg>
