<?xml version="1.0" encoding="utf-8"?>
<!-- Generator: Adobe Illustrator 15.1.0, SVG Export Plug-In . SVG Version: 6.00 Build 0)  -->
<!DOCTYPE svg PUBLIC "-//W3C//DTD SVG 1.1//EN" "http://www.w3.org/Graphics/SVG/1.1/DTD/svg11.dtd">
<svg version="1.1" id="Layer_1" xmlns="http://www.w3.org/2000/svg" xmlns:xlink="http://www.w3.org/1999/xlink" x="0px" y="0px"
	 width="1283.182px" height="404.766px" viewBox="0 0 1283.182 404.766" enable-background="new 0 0 1283.182 404.766"
	 xml:space="preserve">
<g>
	<path fill="#F2FAFF" stroke="#FFFFFF" stroke-miterlimit="3.9745" d="M435.253,1.503H72.304
		C58.969,1.698,45.635,2.044,32.297,1.788c-1.094-0.021-2.167-0.133-3.229-0.285H1.163c-0.074,0.018-0.146,0.04-0.221,0.058
		c0.003,0.248,0.024,0.492,0.014,0.743C0.826,5.655,0.739,9.007,0.672,12.361v31.372C0.884,59.44,1.251,75.147,1.078,90.856
		c-0.146,13.281-0.321,26.544-0.406,39.806v27.672c0.05,6.435,0.135,12.872,0.285,19.312c0.031,1.355-0.089,2.68-0.285,3.981v0.713
		c0.224,1.514,0.298,3.063,0.152,4.646c-0.059,0.634-0.108,1.267-0.152,1.896v51.766c0.183,45.193,0.492,90.384,0.338,135.576
		c0.219,1.303,0.347,2.63,0.347,3.984v22.634c1.596-0.323,3.24-0.5,4.919-0.5c58.414,0,116.832-0.014,175.242,0.748
		c1.698,0.021,3.406,0.034,5.105,0.054c19.81,0.011,39.619,0.138,59.427,0.284h18.504c1.16-0.168,2.333-0.285,3.534-0.285
		c26.688-0.015,53.376-0.385,80.064-0.4c1.958-0.001,3.863,0.251,5.704,0.686h82.368V143.602L435.253,1.503z"/>
	<g>
		<g id="nh">
			<title>New Hampshire</title>
			<path fill="#E6E6E6" stroke="#FFFFFF" stroke-miterlimit="3.9745" d="M417.421,2.016l1.909,2.707v6.649l-6.113,8.325
				l-4.252,1.862v1.861l1.859,2.924v14.091l-1.332,15.154l-0.263,7.978l1.594,2.125l-0.264,7.444l-0.8,2.924l1.594,1.168
				l23.797-6.275c0.063-4.59-0.199-9.175,0.01-13.735c0.592-12.88,0.947-27.181,1.063-40.679l-0.972-15.036"/>
		</g>
		<g id="MI">
			<title>Michigan</title>
			<path id="MI-" fill="#E6E6E6" stroke="#FFFFFF" stroke-miterlimit="3.9745" d="M150.636,118.998l-5.315-13.559l-3.724-14.889
				l-3.987-5.317l-4.255-2.924l-2.66,1.861l-6.379,2.922l-3.189,8.245l-4.52,6.114l-1.862,1.064l-2.395-1.064
				c0,0-4.253-2.391-3.984-3.456c0.263-1.064,0.795-8.242,0.795-8.242l5.584-2.126l1.33-5.583l1.062-4.254l3.989-2.66l-0.532-16.483
				l-2.66-3.722l-2.125-1.33l-1.328-3.456l1.328-1.329l2.655,0.532l0.269-2.661l-3.989-3.723l-2.126-4.253h-4.253l-7.445-2.393
				l-9.043-5.582h-4.515l-1.068,1.064l-1.593-0.798l-5.052-3.722l-4.786,2.925l-4.782,3.722l0.53,5.849l1.593,0.53l3.457,0.796
				l0.797,1.332l-4.254,1.329l-4.253,0.531l-2.393,2.928l-0.533,3.452l0.533,2.661l0.53,9.041l-5.852,3.454l-1.061-0.265v-6.912
				l2.13-3.987l1.061-3.991l-1.332-1.326l-3.188,1.326l-1.594,6.914l-4.522,1.862l-2.922,3.191l-0.268,1.594l1.064,1.329
				l-1.064,4.252l-3.719,0.8v1.862l1.326,3.988l-1.862,10.103l-2.657,6.648l1.063,7.709l0.8,1.859l-1.332,3.988l-0.531,1.328
				l-0.532,4.522l5.848,9.838l4.785,10.632l2.399,7.979l-1.332,7.709l-1.601,9.839l-3.982,8.507l-0.536,4.522l-5.357,5.071
				l7.252-0.265l35.222-3.725l11.971-1.623l0.16,2.739l11.264-1.995l16.939-2.471l6.339-0.759l0.224-0.964l0.269-2.393l3.453-6.114
				l3.295-2.859l-0.366-8.31l2.626-2.625l1.792-0.564l0.367-5.851l2.521-4.983l1.731,0.994l0.267,1.067l1.326,0.266l3.188-1.597
				L150.636,118.998L150.636,118.998z"/>
			<path fill="#E6E6E6" stroke="#FFFFFF" stroke-miterlimit="3.9745" d="M98.527,17.17L96.4,16.105l-5.317-5.05V0.907
				c-0.513,0.032-1.021,0.08-1.539,0.08c-0.264,0-0.522-0.019-0.783-0.03c-1.441,0.263-2.913,0.426-4.421,0.43
				c-0.061,0-0.121,0.001-0.18,0.002l-7.433,1.957l-3.191,0.796l-4.787-1.328L67.951,2.28V1.571
				C57.226,1.747,46.501,1.957,35.774,1.83l-5.045,4.439l-2.658,1.596h-1.861l-2.13,1.33l-2.658-0.796l-2.656-2.129l-2.393,1.596
				L9.992,8.13l-4.52-4.52L4.058,0.626C3.044,0.999,2.009,1.32,0.943,1.561C0.95,1.808,0.966,2.053,0.957,2.304
				C0.52,13.445,0.478,24.587,0.576,35.73l2.115,0.818l3.197,16.92l2.255,1.696l1.935,1.702l5.231-11.513l1.595-6.649l3.188-7.177
				l1.332-0.266l1.861,2.66h1.064l7.445-3.988l2.393,2.657l0.801,0.266l2.124-1.86l1.862-5.05l3.989-1.33l11.429-1.065l3.188-4.254
				l8.509-0.264l9.572,2.126h2.928l5.313-2.392l3.721,0.266l3.46-1.065l6.117,0.799l1.328,0.53l2.125-0.53L98.527,17.17z"/>
			<path fill="#E6E6E6" stroke="#FFFFFF" stroke-miterlimit="3.9745" d="M109.033,15.039c-0.532-0.265-2.661-3.057-2.661-3.057
				l-3.588,0.4l-2.658,0.264l-0.53,1.862l1.593,0.796l1.062,4.122l5.32,0.267l2.125-1.994
				C109.696,17.699,109.563,15.305,109.033,15.039z"/>
		</g>
		<g id="vt">
			<title>Vermont</title>
			<path id="VT_1_" fill="#E6E6E6" stroke="#FFFFFF" stroke-miterlimit="3.9745" d="M416.209,2.016l3.11,2.706v6.644l-6.099,8.32
				l-4.252,1.878l-0.018,1.843l2.153,2.5l-0.513,13.316l-0.999,15.227l-0.379,9.142l1.594,2.125l-0.267,7.518l-0.797,2.778
				l1.669,1.196l-12.231,2.479l-7.401,1.19l0,0l0.517-8.79l-4.75-17.737l-1.067-0.531l-4.785-2.128l1.329-4.785l-1.329-3.457
				l-4.441-7.632l1.593-6.378l-1.326-8.51l-3.99-10.635l-1.327-8.095"/>
		</g>
		<g id="ri">
			<title>Rhode Island</title>
		</g>
		<g id="ny">
			<title>New York</title>
			<path fill="#E6E6E6" stroke="#FFFFFF" stroke-miterlimit="3.9745" d="M435.291,134.504l-3.119-1.2l-2.127,2.395l-4.785,4.519
				l-13.027,6.38l-3.724-0.265l-2.656-1.063l-1.862,1.063l-3.723,4.253l-2.391,2.126l-2.13,0.535l-0.53-2.128l3.192-2.926
				l-1.312-2.759l-3.025-3.277l1.86-3.722v-13.295l-2.393-11.962l-1.328-5.851l-1.328-9.04l0.792-17.812l0.883-8.322l-5.049-18.079
				l-1.063-0.531l-4.787-2.128l1.327-4.785l-1.327-3.456l-4.257-7.445l1.599-6.381l-1.331-8.505l-3.983-10.636l-0.859-8.19
				l-12.442,3.408l-7.446,2.393l-5.315-0.269l-9.038,2.129l-5.071,2.047l-3.971,3.001l-3.454,3.989l-4.524,6.119l-4.781,7.441
				l-2.395,4.788l-1.06,1.329l-9.575,9.04l0.269,4.255l1.331,1.858l2.922,1.331h2.923v2.391l-1.86,3.458l0.531,2.392l2.389,3.457
				l-0.263,3.724l-3.188,1.86h-3.454l-2.664,3.191l-2.925,5.317l-3.456,2.924l-8.505,0.797l-4.255,1.863l-3.457,2.126l-2.656-0.265
				l-3.191-2.131l-10.374,0.269l-5.314,0.796l-6.647,2.126l-7.176,2.393l-4.789,2.926l3.191,10.102l2.922,0.268l2.131,5.051
				l0.268,1.595l-1.866,1.597l-3.456,4.52l-0.795,2.66l-3.19,2.922l-2.929,1.863l-1.594,2.656l-2.126,1.862l-2.348,1.848
				l1.213,10.638l12.385-2.016l70.719-14.36l31.884-7.206l4.02,4.456l5.688-0.15l2.682,10.078l3.723,3.194l4.251,0.264l1.861,1.595
				h-0.002l6.117,2.924l6.383,1.861l7.44,1.595l4.627,2.796l0.267,3.456l-0.798,4.52l0.402,6.067l1.933,0.874l6.646-1.86
				l9.573-3.189l4.254-1.595l11.699-8.776l6.382-4.783l2.25-2.358C435.579,137.808,435.425,136.157,435.291,134.504z"/>
		</g>
		<g id="pa">
			<title>Pennsylvania</title>
			<path id="PA" fill="#E6E6E6" stroke="#FFFFFF" stroke-miterlimit="3.9745" d="M359.938,197.043l2.153-0.444l3.833-2.062
				l1.991-4.084l2.657-3.722l5.321-5.051v-1.329l-3.993-2.658l-5.846-3.988l-1.6-4.254l-4.517-0.531l-0.265-1.861l-1.331-4.521
				l3.723-1.861l0.267-3.988l-2.126-2.127l0.264-2.659l3.187-5.05v-5.05l4.439-4.352l-1.515-1.112l-4.148-0.316l-3.776-3.193
				l-2.546-10.055l-5.763,0.164l-4.039-4.446l-29.753,6.904l-70.725,14.357l-14.623,2.391l-1.02-10.726l-8.819,8.335l-2.126,0.797
				l-6.913,4.948l4.789,31.477l4.081,15.999l5.875,31.681l5.375-1.05l19.645-2.471l62.377-12.606l24.465-4.646l13.648-2.666
				l0.441-0.391l3.455-2.658L359.938,197.043L359.938,197.043z"/>
		</g>
		<path id="NJ" fill="#E6E6E6" stroke="#FFFFFF" stroke-miterlimit="3.9745" d="M367.43,137.457l-3.818,4.497v5.051l-3.192,5.053
			l-0.27,2.657l2.13,2.127l-0.269,3.987l-3.717,1.863l1.324,4.521l0.269,1.859l4.522,0.531l1.594,4.255l5.846,3.986l3.988,2.663
			v1.326l-4.908,4.438l-2.653,3.719l-2.395,4.522l-3.722,2.127l-0.762,2.635l-0.398,1.993l-1.001,4.287l1.797,3.692l5.315,4.783
			l7.975,3.723l6.647,1.064l0.266,2.393l-1.329,1.597l0.533,4.517h1.328l3.454-3.984l1.331-7.979l4.521-6.646l5.05-10.634
			l1.861-9.041l-1.065-1.858l-0.264-15.424l-2.658-5.581l-1.861,1.328l-4.522,0.531l-0.794-0.798l1.861-1.593l3.456-3.192
			l0.104-1.798l-0.632-5.646l0.939-4.521l-0.195-3.238l-4.613-2.879l-8.376-1.933l-6.805-2.272L367.43,137.457L367.43,137.457z"/>
		<path id="DE" fill="#E6E6E6" stroke="#FFFFFF" stroke-miterlimit="3.9745" d="M360.763,202.943l0.606-3.529l0.621-2.784
			l-2.676,0.656l-2.657,0.769l-3.625,2.904l2.83,8.293l3.72,9.306l3.456,15.949l2.661,10.37l8.242-0.266l10.103-1.939l-3.725-12.15
			l-1.599,0.8l-5.844-3.993l-2.922-7.705l-3.192-5.852l-5.177-4.719l-1.423-3.45L360.763,202.943L360.763,202.943z"/>
		<path id="MD" fill="#E6E6E6" stroke="#FFFFFF" stroke-miterlimit="3.9745" d="M384.063,242.64l-9.886,1.979l-8.455,0.191
			l-3.033-11.385l-3.167-15.079l-4.233-10.178l-2.113-7.233l-12.346,2.666l-24.467,4.646l-61.592,12.416l1.856,8.243l1.599,9.305
			l0.531-0.529l3.455-3.991l3.723-4.305l3.99-1.012l2.39-2.393l2.924-4.253l2.13,1.062l4.786-0.529l4.252-3.457l3.301-2.393
			l3.035-0.797l2.706,1.857l4.785,2.396l3.191,2.922l1.992,2.526l6.776,2.792v4.786l9.044,2.128l1.88,0.89l2.32-3.335l4.744,3.239
			l-2.104,4.083l-1.259,6.552l-2.923,4.255v3.458l1.062,2.924l8.33,2.229l7.088-0.102l5.052,1.599l3.455,0.53l1.598-3.458
			l-2.393-3.454v-2.926l-3.99-3.454l-3.456-9.041l2.125-8.773l-0.263-3.458l-2.127-2.127c0,0,2.391-2.659,2.391-3.72
			c0-1.064,0.798-3.459,0.798-3.459l3.193-2.128l3.192-2.659l0.797,1.599l-2.396,2.657l-2.124,6.117l0.531,1.859l2.923,0.529
			l0.799,9.04l-3.454,1.6l0.531,5.846l0.793-0.265l1.862-3.191l2.657,2.926l-2.657,2.127l-0.532,5.581l4.258,5.584l6.376,0.802
			l2.664-1.333l5.318,6.88l2.235,0.88l10.944-4.6l3.3-6.618L384.063,242.64L384.063,242.64z M357.797,257.488l1.863,4.121
			l0.264,2.922l1.861,3.059c0,0,1.465-1.461,1.465-1.993c0-0.53-1.201-5.053-1.201-5.053l-1.196-3.853L357.797,257.488
			L357.797,257.488z"/>
		<path id="VA" fill="#E6E6E6" stroke="#FFFFFF" stroke-miterlimit="3.9745" d="M370.651,265.093l-0.233-3.201l10.61-4.194
			l-1.267,5.293l-4.802,6.216l-0.688,7.541l0.763,5.575l-3.009,8.188l-3.559,3.152l-2.419-7.633l0.736-8.963l2.607-6.882
			L370.651,265.093L370.651,265.093z M376.145,311.64l-95.675,20.68l-61.552,8.685l-10.986-0.617l-4.25,3.167l-12.071,0.361
			l-13.785,1.612l-17.947,2.651l17.217-9.228l-0.021-3.415l2.497-3.528l17.355-18.916l6.493,7.364l6.221,1.588l4.188-1.873
			l3.678-2.159l4.171,2.211l6.438-2.35l3.087-7.495l4.278,0.892l4.697-3.507l2.957,0.812l4.65-6.047l0.573-3.424l-1.586-2.098
			l1.646-3.072l8.68-20.189l1.012-9.432l2.022-0.864l3.581,4.019l6.475-0.495l3.169-12.455l4.598-0.923l1.728-4.51l4.24-3.858
			l4.56-9.368l0.14-8.334l16.153,6.287c1.121,0.562,1.366-8.301,1.366-8.301l6.008,2.626l0.114,4.834l9.517,2.136l3.503,1.937
			l2.73,3.381l-1.074,6.001l-3.206,4.261l0.18,3.385l0.973,3.05l8.187,2.084l7.322,0.064l5.048,1.578l3.195,0.51l1.177,5.079
			l5.242,0.661l1.431,1.974l-0.725,7.715l2.262,1.812l-0.786,3.175l2.023,1.297l-0.364,2.279l-4.434-0.156l0.146,2.657l3.749,2.54
			l0.198,2.316l2.922,2.942l0.808,4.146l-4.2,2.272l2.585,2.458l9.54-2.771L376.145,311.64L376.145,311.64z"/>
		<path id="WV" fill="#E6E6E6" stroke="#FFFFFF" stroke-miterlimit="3.9745" d="M254.784,220.523l1.827,8.131l1.782,9.919
			l3.506-4.245l3.72-5.048l4.175-1.016l2.393-2.393l2.926-4.251l2.374,1.062l4.786-0.532l4.252-3.458l3.303-2.388l3.034-0.797
			l2.145,1.67l5.992,2.997l3.193,2.927l2.257,2.123l-1.254,9.14l-9.59-4.184l-6.989-2.667l-0.161,8.518l-4.522,9.104l-4.159,3.992
			l-1.965,4.52l-4.345,0.824l-1.475,5.923l-1.714,6.498l-6.527,0.557l-3.82-4.006l-1.766,0.918l-1.042,8.996l-2.216,5.813
			l-8.16,18.017l1.475,1.906l-0.334,3.141l-4.62,6.386l-2.976-0.892l-4.882,3.551l-4.18-0.943l-3.289,7.494
			c0,0-5.359,2.349-6.454,2.248c-0.261-0.025-4.06-2.054-4.06-2.054l-3.842,2.268l-3.964,1.722l-6.158-1.465l-1.842-1.923
			l-3.608-4.968l-5.167-3.275l-2.814-5.955l-7.047-5.707L181.92,295l-4.253-2.392l-1.333-2.658l-0.398-8.641l3.592-0.136
			l3.188-1.327l0.268-4.521l2.657-2.391l0.263-8.246l1.6-6.379l2.127-1.065l2.124,1.866l0.8,2.924l2.923-1.597l0.801-2.659
			l-1.863-2.923v-3.988l1.596-2.128l3.721-5.583l2.127-2.393l3.457,0.796l3.719-2.659l5.056-5.582l3.72-6.38l0.532-9.307
			l0.797-8.242v-7.709l-1.859-5.053l1.593-2.392l2.111-2.13l5.74,32.609l7.621-1.234L254.784,220.523L254.784,220.523z"/>
		<path id="OH" fill="#E6E6E6" stroke="#FFFFFF" stroke-miterlimit="3.9745" d="M212.254,145.464l-10.024,6.667l-6.382,3.72
			l-5.58,6.116l-6.648,6.381l-5.316,1.328l-4.787,0.797l-9.042,4.258l-3.453,0.266l-5.585-5.056l-8.508,1.064l-4.251-2.393
			l-3.921-2.22l-8.041,1.155l-16.75,2.659l-18.434,3.595l2.125,24.061l2.927,22.599l4.253,38.549l0.931,7.947l6.779-0.213
			l3.988-1.329l5.531,2.474l3.404,7.179l8.453-0.031l3.114,3.485l2.893-0.104l4.173-2.209l4.121,0.613l8.915,0.794l2.84-3.509
			l3.859-2.125l3.408-1.125l1.06,4.524l2.924,1.595l5.721,3.854l3.585-0.133l2.195-0.812l0.304-4.541l2.604-2.391l0.167-7.885
			l1.683-6.756l2.137-0.99l2.17,1.888l0.888,2.789l2.825-1.706l0.724-2.398l-1.84-3.136l0.111-3.802l1.23-1.764l3.541-5.438
			l1.728-2.539l3.456,0.799l3.724-2.658l5.052-5.583l4.56-6.714l0.525-8.313l0.799-8.24l-0.29-8.727l-1.574-4.76l0.576-1.955
			l2.972-2.881l-3.766-14.88L212.254,145.464L212.254,145.464z"/>
		<path id="IN" fill="#E6E6E6" stroke="#FFFFFF" stroke-miterlimit="3.9745" d="M21.876,320.848l0.111-4.696l0.794-7.447
			l3.722-4.786l2.929-6.383l4.251-6.908l-0.799-9.571l-2.921-4.521l-0.531-5.318l1.325-9.04l-0.794-11.431l-2.129-26.323
			l-2.125-25.256l-1.596-19.275l5.052,1.462l2.391,1.597l1.86-0.531l3.455-3.193l4.655-2.659l8.379-0.265l36.155-3.725l9.171-0.877
			l2.474,26.246l6.99,60.59l0.983,9.493l-0.609,3.719l2.017,2.953l0.162,2.256l-4.146,2.634l-5.822,2.551l-5.267,0.904l-0.983,8.005
			l-7.526,5.448l-4.598,6.594l0.532,3.911l-0.958,2.523h-5.474l-2.603-2.659l-4.101,2.076l-4.416,2.474l0.269,5.024l-1.964,0.42
			l-0.77-1.673l-3.565-2.475l-5.344,2.209l-2.55,4.943l-2.368-1.33l-2.393-2.629l-7.342,0.798l-9.195,1.595L21.876,320.848
			L21.876,320.848z"/>
		<path fill="#E6E6E6" stroke="#FFFFFF" stroke-miterlimit="3.9745" d="M32.784,281.8l-3.296-5.824l-0.156-5.503l1.138-8.669
			l-1.354-11.807l-1.756-25.946l-2.124-24.697l-1.519-19.144l-0.452-1.517l-1.326-4.251l-2.127-6.117l-2.66-2.925l-2.394-4.253
			l-0.38-9.026l-13.739,0.779c0.035,8.245,0.126,16.491,0.317,24.745c0.033,1.46-0.1,2.886-0.328,4.283
			c0.279,1.641,0.354,3.331,0.195,5.058c-0.149,1.611-0.242,3.21-0.323,4.799c0.015,0.357,0.056,0.711,0.056,1.072
			c0.009,51.604,0.477,103.207,0.498,154.812l2.126,0.964l5.968,2.265l1.954-0.492l0.33-3.712l-2.118-3.971l0.501-3.908l3.022-2.214
			l4.969-1.334l2.075-0.755l-1.008-2.282l-1.301-3.871l2.352-1.614l1.905-5.283l0.053-5.31l0.933-7.643l3.839-4.794l3.067-6.706
			l3.678-6.569L32.784,281.8z"/>
		<path fill="#E6E6E6" stroke="#FFFFFF" stroke-miterlimit="3.9745" d="M436.225,97.203h-1.84l-7.763,1.513l-34.913,7.8l1.648,5.306
			l2.39,11.967l0.294,14.744l-2.005,3.578l3.158,3.178l7.024-6.424l5.847-5.317l3.191-3.456l1.328,1.063l4.521-2.393l8.507-1.862
			l8.143-2.897C435.416,115.309,436.048,105.943,436.225,97.203z"/>
		<path fill="#E6E6E6" stroke="#FFFFFF" stroke-miterlimit="3.9745" d="M1.066,72.837l1.018-1.907l3.454-7.711l2.927-2.656
			l1.629-3.878l-4.212-3.127l-3.25-17.051l-2.057-0.777C0.684,48.097,0.955,60.466,1.066,72.837z"/>
		<path fill="#E6E6E6" stroke="#FFFFFF" stroke-miterlimit="3.9745" d="M24.976,49.395l-1.333,0.796l-6.914,10.371l-4.52,6.646
			l-3.193,2.925L7.69,73.856l-3.214,1.327l-1.863,3.191L1.106,78.04c0.019,4.272,0.019,8.544-0.028,12.816
			c-0.228,20.712-0.528,41.383-0.439,62.068l13.832-0.815l-0.111-5.193l-1.938-7.445l-1.063-10.105l-1.861-3.987l1.595-5.051
			l1.33-4.785l2.394-4.255l-1.063-5.581l-1.063-5.851l0.796-2.926l3.193-3.987l0.263-4.52l-1.327-2.127l1.064-4.253l-0.748-6.86
			l4.522-9.304l4.784-11.167l0.269-3.722L24.976,49.395z"/>
		<path fill="#E6E6E6" stroke="#FFFFFF" stroke-miterlimit="3.9745" d="M390.479,337.98l-1.063-3.722l-3.988-3.987l-5.849-10.635
			l-3.429-8.088l-8.306,1.901l-18.376,3.958l-32.871,7.004l-35.588,7.763l-24.894,3.431l-25.918,3.704l-11.834,1.408l-7.034,0.038
			l-0.311,6.001l-0.795,3.454l-4.79,4.251l-2.653,5.853l-3.722-0.532l-3.46,1.063l-3.722,5.844c0,0-1.862-0.523-3.191-0.523
			c-1.327,0-1.327-1.864-1.327-1.864l-1.063,0.265l-6.38,6.385l-1.068,5.044l-7.176,3.463l-6.914,5.845l-6.378,2.397l-6.914,4.515
			l-1.064,6.118l-4.518,1.065l-2.928,2.393l-0.113,0.914c12.27,0.095,24.541,0.212,36.81,0.368l7.415-3.123l14.889-7.443
			l11.965-1.331l27.119-0.799l4.881,3.484l2.659,5.315l7.035-1.234l20.739-2.389l4.787,1.325l10.249,6.177
			c16.437-0.099,32.872-0.238,49.309-0.286l3.787-5.232l10.633-8.775l8.51-3.985l4.519-1.061l1.862,0.793h2.125l5.053-7.976
			l3.194-5.85l-2.13,0.801l-3.721,3.718l-1.064-2.654h-6.912l3.192-10.37l-1.331-2.128h-3.191v-1.598l-0.53-2.126l2.66,2.126
			l2.393,0.269l3.983,0.53l6.12-2.654l2.125-4.789l1.061-3.458l4.256-2.126l0.532-6.914l-1.327-1.062L390.479,337.98z"/>
		<polygon fill="#E6E6E6" stroke="#FFFFFF" stroke-miterlimit="3.9745" points="396.602,345.025 392.08,335.985 390.884,336.385 
			391.948,339.443 394.341,343.297 395.404,353.4 395.135,356.722 392.611,357.783 387.43,362.043 383.174,366.166 384.902,366.426 
			386.767,364.431 391.415,360.446 396.997,357.919 397.265,352.337 		"/>
		<g id="dc_1_">
			<title>Washington, D.C.</title>
			<path id="DC" fill="#E6E6E6" stroke="#FFFFFF" stroke-miterlimit="3.9745" d="M328.19,240.053l-3.057-2.999l-2.024-1.126
				l2.371-3.328l4.748,3.202L328.19,240.053L328.19,240.053z"/>
		</g>
		<path fill="#E6E6E6" stroke="#FFFFFF" stroke-miterlimit="3.9745" d="M435.152,70.938l-25.334,6.664l-11.17,2.127l-7.056,1.462
			l-1.064,17.416l1.099,7.84l34.006-7.553l8.375-1.729l0.556-0.159C434.748,88.306,435.032,79.605,435.152,70.938z"/>
		<path fill="#E6E6E6" stroke="#FFFFFF" stroke-miterlimit="3.9745" d="M1.357,402.843c1.596-0.323,3.24-0.5,4.919-0.5
			c45.458,0,90.917,0.003,136.375,0.36l0.074-0.725l2.976-2.45l4.665-1.235l1.104-6.116l6.74-4.443l6.652-2.454l6.72-5.874
			l7.297-3.331l0.855-5.05l6.685-6.551l0.905-0.187c0,0,0.051,1.86,1.382,1.86c1.331,0,3.188,0.584,3.188,0.584l3.723-5.903
			l3.404-1.062l3.743,0.483l2.627-5.807l4.858-4.351l0.695-3.188l0.513-6.105l-3.535-0.328l-4.279,3.337l-11.503,0.047l-30.19,3.925
			l-13.261,3.14l-85.341,8.243l-25.917,2.923l-7.598,0.842l-6.367-0.043l-0.361,6.745l-13.462,0.435l-8.613,0.802
			c-0.004,1.806-0.015,3.611-0.021,5.421c0.211,1.282,0.347,2.587,0.347,3.924V402.843z"/>
		<path fill="#E6E6E6" stroke="#FFFFFF" stroke-miterlimit="3.9745" d="M268.089,403.144c7.734-0.004,15.468-0.04,23.203-0.087
			l-10.118-6.1l-4.787-1.328l-20.741,2.396l-7.074,1.002l-2.762-5.524l-4.341-3.087l-26.5,0.692l-12.785,1.333l-14.992,7.548
			l-7.614,3.084c0.647,0.007,1.294,0.011,1.939,0.019c1.508,0.021,3.02,0.034,4.53,0.053c25.91,0.009,51.819,0.209,77.728,0.405
			C265.184,403.303,266.619,403.144,268.089,403.144z"/>
		<path fill="#E6E6E6" stroke="#FFFFFF" stroke-miterlimit="3.9745" d="M192.868,310.393l-2.97-5.958l-6.839-5.654l-1.272-3.775
			l-4.258-2.558l-1.327-2.586l-0.196-9.33l-4.349-3.425l-3.355-1.739l-1.07-4.667l-3.093,1.164l-4.302,2.343l-2.775,3.383
			l-4.238-0.357l-8.613-0.943l-4.278,2.103l-2.655,0.241l-3.372-3.628l-8.441-0.021l-3.376-7.178l-5.507-2.354l-3.784,1.229
			l-6.884,0.193l-0.929,4.925l1.879,2.395l0.326,2.573l-4.019,2.81l-6.234,2.707l-4.811,0.75l-1.159,7.953l-7.856,5.651l-4.28,6.574
			l0.608,3.724l-0.968,2.589l-5.457,0.069l-2.517-2.732l-3.529,1.766l-5.151,2.88l0.263,4.853l-1.928,0.435l-0.675-1.645
			l-3.624-2.438l-5.242,2.111l-2.617,5.108l-2.515-1.43l-2.29-2.677l-7.392,0.796l-8.747,1.596l-5.024,2.433
			c0.024,0.226-2.03,5.954-2.036,6.015l-2.475,1.641l1.063,3.191l1.327,2.92l-2.658,1.069l-4.255,1.06l-3.19,2.395l-0.531,3.721
			l2.125,3.989l-0.264,3.721l-1.862,0.53l-5.85-2.127l-2.367-1.114c0.003,7.7-0.004,15.403-0.023,23.104l8.611-0.8l13.448-0.239
			l0.37-6.944l6.362,0.048l7.603-0.846l25.919-2.924l85.303-8.057l11.895-2.955l9.304-5.586l7.202-3.559l0.103-3.454l2.002-2.822
			l8.098-8.989l5.885-6.568l3.77-3.948L192.868,310.393z"/>
	</g>
	<circle stroke="#FFFFFF" stroke-miterlimit="3.9745" cx="334.442" cy="217.303" r="4.795"/>
	<path fill="#F2FAFF" stroke="#FFFFFF" stroke-miterlimit="3.9745" d="M435.162,57.218"/>
	<path fill="#F2FAFF" stroke="#FFFFFF" stroke-miterlimit="3.9745" d="M948.641,402.282c12.08,0.513,24.161,0.872,36.242,1.147
		h81.32c6.326-0.121,12.646-0.311,18.941-0.677c12.022-0.7,23.875-1.231,35.702,0.252c20.974-0.765,41.944-1.316,62.784,0.077
		c1.106,0.074,2.199,0.193,3.284,0.348h55.133c2.345-0.485,4.765-0.745,7.235-0.748c11.077-0.017,22.152-0.194,33.228-0.308V1.503
		H538.708v401.926h3.187c2.627-0.381,5.357-0.367,8.103,0h35.882c4.818-0.185,9.638-0.306,14.47-0.261
		c17.98,0.162,35.893-0.371,53.867-0.676c18.351-0.311,36.67,1.077,55.024,0.76c16.942-0.295,33.849-2.76,50.679-0.509
		c51.871,0.039,103.772,1.928,155.612-0.801"/>
	<g id="ge" transform="matrix(4.1453484,0,0,4.0668378,-4708.4546,-1622.1268)">
		<path id="ge-_2_" fill="#E6E6E6" d="M1396.245,399.544c0.272,0.793-0.912,0.589-0.12,1.278c1.222,1.063,2.728,1.052,4.082,1.644
			c2.179,0.953-1.079,1.632-0.015,2.887c0.66,0.779,3.696,2.016,3.51,3.028c-0.417,2.259-3.007-0.03-3.69,0.219
			c-1.83,0.667-2.878-1.432-4.593-1.769c-0.689-0.135-1.342,0.042-1.852,0.464c-0.481,0.398-1.806,0.852-1.575,1.158
			c-1.12,0.078-2.239-0.146-3.36-0.075c-1.172,0.075-2.161,0.602-3.376,0.597c-1.175-0.004-1.667-0.148-2.662-0.259
			c-0.175-0.02-1.698,0.059-1.435-0.519c0.17-0.377,0.022-0.717-0.38-0.62c-0.113,0.01-1.601-1.659-2.445-1.423
			c0.582-1.3-1.425-0.482-1.636,0.322c-0.217,0.82-2.864-0.094-3.541-0.264c-0.475,0.085-0.491,0.882-1.301,0.445
			c-0.399-0.216-1.159-0.686-1.538-0.487c-0.06-0.135,0.083-0.294,0.261-0.771c0.546-1.459,1.174-2.311,0.156-3.747
			c-0.968-1.367-0.141-1.034-1.085-2.415"/>
	</g>
	<path fill="#E6E6E6" stroke="#FFFFFF" stroke-miterlimit="3.9745" d="M836.382,392.062c-0.035,3.77-0.718,7.474-1.451,11.172
		c16.207,0.149,32.413,0.245,48.617,0.124c0.03-0.028,0.058-0.061,0.087-0.089c5.341-5.007,15.757-0.947,19.875-5.714
		c2.455-2.842-0.146-8.576,2.153-11.412c1.997-2.472,9.425-2.307,12.233-3.66l-31.217-32.138c20.934-5.122,38.379-10.66,55.8-21.107
		c5.547-5.713,1.221-5.186-2.216-6.044c-2.164-0.548-4.356-5.054-0.997-5.398c-3.337-9.384-7.295-18.549-10.314-28.037
		c-9.786,5.338-19.103,12.072-28.433,18.17c-7.292,4.773-15.415,12.914-24.24,14.621c-8.766,1.688-14.66-5.007-21.178-9.425
		c-3.959-2.684-12.62-4.78-12.372,2.032c0.299,8.024,1.405,17.569,1.108,25.518c-0.151,3.799-1.471,7.625-1.781,11.521
		c-0.328,4.121,0.867,8.255,0.338,12.313C841.132,374.249,836.48,381.831,836.382,392.062z"/>
	<g id="tr" transform="matrix(4.1453484,0,0,4.0668378,-4831.9096,-1805.3352)">
		<path id="path3456" fill="#E6E6E6" stroke="#FFFFFF" stroke-width="0.5" stroke-miterlimit="3.9745" d="M1301.943,457.265
			c0.682-0.325,1.621-1.255,1.826-1.995c0.319-1.152-0.566-2.018,1.032-2.739c0.873-0.395,0.556-0.4,0.336-1.318
			c-0.129-0.539-0.345-1.078-0.925-1.267c-2.094-0.685,0.489-1.015,0.37-1.854c-0.032-0.233,2.243-0.882,2.612-1.002
			c1.207-0.393,1.917-0.797,2.792,0.196c0.817,0.927,1.276,0.333,2.314,0.23c0.482-0.048,1.05,0.003,1.442,0.327
			c0.668,0.553-0.334,0.744,0.138,1.35c1.757,2.262,3.809,3.245,6.598,4.082c1.078,0.322,0.182,1.894-0.485,2.141
			c-1.276,0.472-3.129-0.764-4.427-0.84c-0.643-0.037-1.035,0.41-1.566,0.682c-0.653,0.334-1.334-0.245-2.082-0.021
			c-0.906,0.271-1.279,1.247-1.903,1.927c-1.013,1.103-2.378,1.415-3.545,2.266c-0.99,0.722-1.945,2.737-3.018,3.152
			c-0.324-1.278,0.217-2.608,1.476-3.055c0.226-0.08,2.64-0.81,1.844-1.465C1305.484,456.998,1302.571,459.849,1301.943,457.265"/>
		<path id="path3458" fill="#E6E6E6" stroke="#FFFFFF" stroke-width="0.5" stroke-miterlimit="3.9745" d="M1302.799,467.178
			c0.091-0.679,0.175-4.041,0.677-4.233c1.246-0.475,1.645-2.281,2.933-2.923c0.687-0.342,1.566,0.262,2.203-0.184
			c0.797-0.558,1.142-0.133,1.842,0.286c1.005,0.603,4.251,0.346,2.192-0.89c0.652-0.266,1.362-0.232,2.033-0.066
			c-0.333,0.12-0.496,0.334-0.489,0.639c0.385,0.538,2.337,0.221,2.835,0.175c1.528-0.139,3.733,0.752,5.012-0.355
			c-0.611-0.597-1.399-0.074-2.042-0.59c0.824-2.101,4.603-1.309,6.31-1.707c-1.473-0.725-3.576-0.116-4.812-1.383
			c-1.387-1.422,0.008-2.602,1.497-2.462c1.632,0.154,3.26,0.914,4.92,0.551c2.215-0.482,4.016,0.726,6.274,0.502
			c1.042-0.103,1.195-0.638,1.582-1.454c0.427-0.898,2.02-1.291,2.831-1.766c2.34-1.371,4.202-2.576,6.849-3.292
			c2.759-0.747,4.872-0.348,7.674-0.348c1.129,0,2.327,0.465,3.445,0.131c0.517-0.155,0.689-0.772,1.187-0.919
			c0.507-0.149,0.946,0.152,1.439,0.197c-0.837,1.009,0.598,2.381,1.51,2.659c0.693,0.211,1.409,0.385,2.138,0.289
			c0.798-0.104,1.477-1.002,1.477,0.137c0.183-1.692,1.271,0.366,1.428,0.851c0.211,0.64,1.958,2.806,2.643,2.07
			c0.905-0.972,1.873-0.758,2.846,0.021c1.185,0.949,2.643,1.121,3.969,1.783c0.745,0.376,0.874-1.166,1.9-0.041
			c0.823,0.905,2.423,0.883,3.552,0.996c1.568,0.158,3.176-0.927,4.75-1.082c1.346-0.133,2.084-0.31,3.371,0.152
			c1.806,0.646,3.144,1.088,5.002,0.218c2.228-1.044,4.267-2.234,6.171-3.766c0.762-0.613,1.47,0.425,2.24,0.441
			c0.471,0.011,0.433-0.635,0.984-0.525c0.359,0.071,0.714,0.152,1.072,0.225c0.517,0.107,1.992,0.688,2.308-0.01
			c0.387-0.855,2.248-1.568,1.671-0.281c0.587-0.11,1.098,0.266,1.515,0.616c0.302,0.274,0.616,0.532,0.944,0.772
			c0.528,0.066,0.649,0.31,0.36,0.735c0.244,0.735,1.239,0.019,1.643,0.62c0.263,0.391,0.433,1.551,0.823,1.866
			c1.243,1.005,2.259,2.007,1.546,3.033c-0.703,1.013,1.195,2.517,0.197,3.189c1.599,0.807,2.416,0.622,4.091,0.685
			c1.43,0.053,3.439,1.953,3.978,3.188c-0.778-0.642-1.965-1.573-2.292,0c-0.102,0.485,0.023,0.995-0.126,1.478
			c-0.193,0.626-1.847,0.295-2.37,0.492c0.384,0.454,1.153,1.624,1.301,2.194c0.249,0.952,0.668,1.447,1.005,2.327
			c0.496,1.296,0.044,3.189,1.699,3.75c-0.561,0.53-0.89,1.592-1.065,2.318c-0.354,1.457,1.155,1.243,1.921,1.949
			c0.771,0.709,0.617,1.643,0.861,2.57c0.124,0.463,0.943,0.668,1.265,0.953c0.354,0.316,0.041,1.064,0.237,1.466
			c-1.53-1.079-2.161,1.602-3.038,1.312c-1.135-0.376-0.207-1.871-1.039-2.428c-0.416-0.278-1.105-0.253-1.481,0.087
			c-0.68,0.613-1.678,0.469-2.48,0.218c-1.306-0.41-2.312-0.842-3.693-0.821c-0.98,0.014-1.593-0.258-2.108,0.603
			c-0.62,1.043-1.861,1.98-2.286,0.425c-0.37-1.356-2.081,0.275-2.83,0.518c-1.925,0.623-3.539,0.605-5.492,0.347
			c-3.508-0.463-6.54,3.069-10.093,3.316c-1.417,0.098-3.976,0.449-5.168-0.452c-1.299-0.983-2.112-1.547-3.716-0.769
			c-1.713,0.832-5.44,2.792-6.914,0.966c-0.74-0.916-2.311-1.234-2.536,0.208c-0.222,1.419,0.273,2.412,0.878,3.626
			c-0.644,0.037-1.327,0.22-1.97,0.065c-0.104,0.562,0.272,1.155,0.073,1.707c-0.232,0.655-1.101,0.792-1.312,1.509
			c-0.493-0.331-0.989-0.705-1.577-0.853c0.564-0.736-0.213-1.692-0.657-2.243c-0.829-1.027,0.068-1.631,0.922-2.374
			c0.88-0.763,1.449-1.301,0.593-2.456c-0.342-0.462-1.058-1.031-1.547-0.399c-0.676,0.873-1.357,0.736-2.201,1.367
			c1.398-0.142-0.036,1.265-1.074,1.075c-1.286-0.235-2.432-0.992-3.583-1.569c-2.742-1.374-4.165,2.658-5.455,4.302
			c-0.195-0.22-0.394-0.438-0.593-0.656c-0.493,0.518-0.819,1.441-1.621,1.137c-0.697-0.263-2.666,0.221-3.323,0.549
			c-1.193,0.596-2.589,0.507-3.753-0.006c-1.786-0.789-2.426-2.769-4.126-3.6c-1.866-0.914-3.753-1.958-5.809-2.324
			c-1.084-0.191-3.293-0.629-3.293,1.091c0,0.988,0.184,2.783-0.539,3.571c-0.394,0.429-0.916-0.366-1.287-0.418
			c-0.952-0.13-1.934,0.997-2.875,1.154c-1.085,0.182-2.737-0.517-3.63-1.091c-0.681-0.436-0.712-1.861-1.643-1.905
			c0.724-1.021-0.961-2.13-1.175-0.786c-0.705-0.615-2.483-0.845-2.698-1.905c-0.166,0.766-2.015,2.028-2.626,2.494
			c0.216-0.458,0.064-0.742-0.456-0.853c0.517-0.111,0.846-0.523,0.848-1.05c-0.666,0.559-3.799,1.228-4.658,0.985
			c0.683-0.835,1.956-0.886,2.94-0.86c0.995,0.026,0.89,0.289,1.296-0.48c0.284-0.535,0.896-0.778,1.28-1.22
			c-1.211-0.54-5.371-0.611-6.364,0.394c-1.5-1.763,1.352-0.832,1.567-1.287c0.177-0.378,0.156-0.907-0.058-1.266
			c-0.503-0.842-1.06,0.326-0.787-0.992c-1.447,1.85-1.342-1.963-2.689-1.904c0.935-0.508,2-0.997,1.2-2.267
			c-0.579-0.915-2.227-0.441-2.625-1.122c-0.411-0.704-0.828-1.689-1.445-0.457c-0.274,0.546-2.219-0.923-2.256-1.406
			c1.957,0.469,0.263-1.604,0.334-2.411c0.058-0.668,1.112-0.181,1.312,0.148c0.415,0.68,0.274,1.795,0.916,2.329
			c-0.141-1.455,2.125,0.366,2.755-1.116c-1.306-0.161-1.837-0.795-2.626-1.773c0.682-0.377,1.034-1.204,1.841-1.378
			c-0.358-1.065-1.461,0.04-1.359-1.165c0.101-1.198-0.532-1.353-1.403-2.117c0.581-0.669,1.25-1.256,1.778-1.97
			C1306.446,465.828,1304.68,467.793,1302.799,467.178"/>
	</g>
	<path fill="#E6E6E6" stroke="#FFFFFF" stroke-width="0.5" stroke-miterlimit="3.9745" d="M1208.695,399.171
		c-4.749-1.122-3.993-8.469-7.339-10.84c-6.64-4.691-9.743-6.4-8.864-12.229c0.39-2.626,0.396-6.951-1.329-9.096
		c-1.333-1.674-4.196-1.327-5.901-1.449c-4.872-0.338-5.038-9.489-4.359-12.711c1.418-6.742,4.888-11.809-0.771-16.714
		c-3.731-3.238-11.539-16.771-15.772-17.093c-8.929-0.684-13.048-8.802-19.504-12.377c-3.509-1.944-5.962-4.682-10.345-3.683
		c-3.049,0.698-2.114-3.525-5.812-4.411c9.482-2.614-7.163-16.606-10.356-18.712c-3.199-2.108-5.697-5.123-8.546-7.647
		c-3.319-2.946,0.136-3.804,1.374-7.591c1.305-3.971-0.466-5.002-2.821-7.428c-2.161-2.219-0.254-4.262,0.207-6.945
		c1.751,1.061,3.654,1.593,5.71,1.605c-0.558-2.928-2.147-5.29-1.201-8.463c0.84-2.806,4.123-2.307,4.024-5.288
		c-0.236-6.617,7.899,0.562,7.261-5.97c-0.489-4.946-8.966-8.992-5.966-14.435c1.772-3.224,6.707-2.257,7.695-6.426
		c-11.31-2.935-11.384,1.146-16.627-0.801c-2.74-1.018-5.269-6.433-11.419-5.086c3.72-6.863-5.395-10.778-9.534-14.751
		c-1.968-1.887-0.432-5.146-1.591-7.438c-0.948-1.878-2.431-1.613-3.566-3.113c-2.402-3.154-2.206-12.271-7.681-12.472
		c-4.308-0.159-5.857,5.654-9.776,6.002c-5.372,0.479,1.098-11.7-8.38-9.976c-3.757,0.684-5.049,3.426-9.364,2.55
		c-2.627-0.53-5.143-1.418-7.641-2.358c-3.149-1.188-17.523-3.479-18.904-1.001c-1.405,2.524-2.457,5.502-5.686,6.458
		c-1.954,0.582-4.565-0.963-3.261,0.449c2.846,3.093-6.763,10.751-10.335,13.676c-4.256,3.483-9.374,3.354-13.495,6.503
		c-7.202,5.509,2.131,16.807,2.911,23.24c0.699,5.757-2.592,7.24-2.702,19.222c-1.025,2.883,3.081,13.072-2.07,20.776
		c-2.677,4.012-7.71,7.9-12.373,11.042c-14.664,9.887-29.15,17.627-45.639,25.565c2.264,7.116,4.79,13.99,7.469,20.987
		c1.197,3.158,3.106,5.359,1.182,7.524c-0.501,0.87-0.024,2.584,0.552,3.444c2.298,3.472,11.539-0.121,3.865,8.033
		c12.24,2.648,24.268,2.151,37.805,7.974c35.543,15.276,66.25,42.015,97.863,65.383c2.49-0.097,4.979-0.207,7.463-0.352
		c12.022-0.7,23.874-1.231,35.702,0.252c15.744-0.569,31.489-1.021,47.177-0.622c0.213-0.539,0.431-1.065,0.668-1.558
		c2.141-4.464,8.254-5.561,12.979-5.358c3.273,0.14,11.638,3.88,9.62-0.783C1191.613,397.306,1206.242,399.351,1208.695,399.171z"/>
	<g id="ir" transform="matrix(4.1453484,0,0,4.0668378,-4831.9096,-1805.3352)">
		<path fill="#E6E6E6" stroke="#FFFFFF" stroke-width="0.5" stroke-miterlimit="3.9745" d="M1475.152,489.349
			c-2.631,0.789-5.917,0.029-8.366-1.061c-1.302-0.58-2.988-1.209-4.101-2.101c-1.018-0.814-1.441-2.219-2.7-2.759
			c-1.937-0.828-4.216-0.355-6.133-1.362c-2.254-1.182-2.106-4.537-3.108-6.572c-0.1-0.204-1.083-0.013-1.408-0.161
			c-0.806-0.37-1.479-1.092-2.23-1.561c-1.065-0.663-3.658-2.132-1.16-2.698c1.347-0.306-1.919-2.333,0.49-3.24
			c-1.103-1.323-2.718-3.22-4.526-1.976c-0.692,0.477-1.241,1.125-1.875,1.669c-0.547,0.47-1.544,0.626-1.808,1.348
			c-0.23,0.626-2.483,2.579-3.151,2.777c-1.212,0.359-2.974,0.226-4.212,0.035c-2.002-0.309-2.608-1.015-3.999-2.284
			c-0.678-0.62-1.456-1.12-2.138-1.739c-0.705-0.641-1.129-1.546-1.903-2.115c-0.785-0.578-1.876-1.041-1.859,0.204
			c0.039,2.87-0.612,1.528-2.429,2.147c0.466,0.738,1.247,2.204,1.42,2.565c0.315,0.652,0.151,1.15,0.642,1.708
			c0.879,0.996-0.023,3.588,1.941,3.992c-0.709,0.67-1.147,1.962-1.238,2.897c-0.059,0.625,1.492,1.11,1.893,1.283
			c0.766,0.329,0.435,1.902,1.112,2.843c0.683,0.951,1.617,0.394,1.285,1.79c-0.092,0.388,1.239,3.299,1.458,3.393
			c0.854,0.359,0.925,0.678,0.836,1.58c-0.151,1.547,3.597,2.215,2.593,4.53c1.466-0.332,1.645,0.566,2.755,1.181
			c0.733,0.407,1.547,0.043,2.301-0.033c0.619-0.063,1.076,0.414,1.71,0.23c-0.25,1.072-1.727,0.824-1.986,1.793
			c-0.302,1.121,0.885,1.93,1.376,2.775c0.294,0.502,0.393,1.296-0.481,1.292c-0.928-0.006-0.972-0.319-1.088,0.787
			c-0.08,0.759-1.214,0.593-1.104,1.617c0.063,0.592,0.347,1.133,0.458,1.715c-0.496-0.004-0.956-0.136-1.379-0.396
			c-0.108,0.624-0.629,1.39,0.032,1.906c0.665,0.521,0.826,0.916,0.529,1.727c-0.326,0.89-1.049,1.056-0.26,1.767
			c0.531,0.481,1.009,1.034,1.552,1.498c0.744,0.635,5.344,4.271,3.008,4.985c1.066,0.411,0.192,1.233,1.653,1.113
			c0.872-0.073,1.668,0.518,2.348,0.988c1.249,0.862,2.288,2.547,3.863,2.845c2.064,0.391,1.822,1.272,3.094,2.801
			c1.251,1.503,2.31,1.896,1.882,4.036c-0.322,1.61-1.06,4.857,1.309,4.783c1.506-0.047,1.021,2.07,1.164,3.133
			c0.224,1.672,2.126,1.782,2.664,3.134c0.261,0.655,0.292,1.504,1.027,1.826c0.523,0.231,1.113,0.052,0.88-0.631
			c3.401,1.394,0.219-3.08,2.169-2.824c-0.18-0.19-0.356-0.386-0.528-0.59c0.745-0.434,1.81-0.188,2.033,0.723
			c-0.674,0.22-1.353-0.045-2.033,0c0.419,0.672,1.77,0.908,1.991,1.351c0.463,0.924,1.508,0.229,2.203,1.207
			c1.037,1.46,2.942-2.812,3.885-0.371c0.291,0.757,0.653,1.437,1.087,2.075c3.265-0.022,3.148-0.061,6.413-0.066"/>
	</g>
	<path id="sy" fill="#E6E6E6" stroke="#FFFFFF" stroke-width="0.5" stroke-miterlimit="3.9745" d="M842.132,292.96
		c2.373-2.945,6.937-9.078,11.146-9.881c-6.43-5.885,2.766-9.588,8.163-8.008c-4.744-5.658,2.327-6.348,3.962-11.751
		c0.909-2.997-2.889-9.058-6.392-9.696c-3.992-0.723,3.611-6.346-2.571-4.643c-10.311,2.834-11.07-3.614-11.546-8.847
		c-0.436-4.752,2.698-13.439-1.655-16.94c-3.485-2.807-0.774-10.27-0.907-14.372c-0.104-3.082,5.739,1.758,6.858,2.305
		c0.091,0.408,1.43-2.735,3.91-4.206c3.063-1.815,0.995-5.9,1.528-8.735c2.665,0.63,5.496-0.118,8.167-0.264
		c-2.13-4.29-3.524-5.401-4.135-10.564c-0.224-1.878-0.052-7.184,2.63-7.841c2.024-0.497,4.05-0.514,5.652,0.315
		c4.338,2.234,5.186,6.033,9.649,5.35c5.444-0.834,9.06-1.467,14.258-3.67c5.323-2.259,9.229-5.396,15.214-4.554
		c4.416,0.62,7.014,3.699,10.751,5.415c4.257,1.959,12.59,1.144,17.203,0.754c11.768-0.993,20.173-7.589,30.823-11.77
		c10.776-4.226,22.546,1.702,33.604-2.627c5.638-2.21,13.926-10.67,14.748,2.562c0.19,3.08-7.469,9.328-9.679,11.473
		c-4.003,3.888-8.466,3.612-12.973,6.21c-9.674,5.573,0.465,17.64,1.222,24.298c0.449,3.937-1.978,8.77-2.271,12.84
		c-0.423,6.064,0,15.868-0.027,21.873c-0.074,14.04-60.349,40.905-90.939,61.449c-8.328,5.593-21.802,19.048-32.636,11.607
		c-3.938-2.703-6.776-4.779-10.843-7.522c-7.052-4.756-10.226-1.196-11.395-1.362C843.406,311.285,846.205,294.705,842.132,292.96"
		/>
	<path fill="#E6E6E6" stroke="#FFFFFF" stroke-miterlimit="3.9745" d="M762.802,401.949c0.851-1.582,1.865-3.004,2.866-4.06
		c0.35,1.443,0.76,2.875,1.2,4.302c1.848,0.138,3.692,0.331,5.539,0.557c0.03,0,0.06-0.004,0.092-0.004
		c18.146,0.013,36.295,0.227,54.444,0.412l-18.51-47.943c-3.784,3.221-8.505,5.037-13.22,6.426
		c-5.36,1.583-10.955-0.228-15.938,2.878c1.369-5.607-6.332-0.885-8.938-0.66c-8.042,0.691-10.321-5.519-17.18-7.081
		c6.443,2.966-2.453,6.65-2.453,7.741c-3.228-2.958-0.895-4.171-5.883-5.338c-4.588-1.077-0.706-6.31-1.757-9.077
		c3.551,0.234,6.309,4.29,9.001,6.139c-2.658-1.654-4.071-5.916-7.071-6.939c-3.222-1.104-6.087,1.845-9.127,2.264
		c-6.364,0.892-10.666-6.552-17.293-4.402c8.953,0.638-9.798,6.202-10.621,6.675c2.377-2.456,5.359-4.2,8.466-5.603
		c-4.623-0.035-8.977,4.844-13.604,2.128c-0.657,3.012-3.333,5.546-6.014,6.942c2.066-0.146,1.729,0.298,3.291,1.066
		c-2.739,0.426-4.371-1.279-6.536-2.934c-2.535,2.542-5.103,5.052-7.863,7.354c-5.314,4.455-12.407,9.351-19.823,8.138
		c-7.667-1.26-13.123-6.291-21.301-7.085c-2.54-0.249-5.119-0.257-7.641-0.771c-2.296-0.469-3.245-3.601-5.284-3.379
		c-3.038,0.315-5.37,0.688-8.438-0.239c-3.452-1.048-3.993-4.673-7.386-5.562c-8.042-2.104-16.008-3.915-24.311-4.732
		c-7.59-0.748-13.849-3.231-21.487-1.005c-4.182,1.22-12.243,3.649-12.53-3.138c-13.665,11.056-5.018,17.559-3.553,26.868
		c1.365,8.672-9.727,17.533-4.342,25.99c0.859,1.688,1.63,3.64,2.324,5.729c0.124,0.019,0.248,0.029,0.371,0.051
		c0.733,0.128,1.294,0.232,1.719,0.317c0.479,0.003,1.18,0.026,2.191,0.076c1.843,0.111,3.687,0.182,5.533,0.211
		c4.701,0.032,9.396-0.063,14.092-0.284c9.353-0.437,18.671-0.889,28.039-0.808c19.005,0.162,37.94-0.371,56.938-0.676
		c19.398-0.311,38.763,1.077,58.164,0.76C733.615,403.012,748.231,401.329,762.802,401.949z"/>
	<g id="sa" transform="matrix(4.1453484,0,0,4.0668378,-4831.9096,-1805.3352)">
		<path fill="#E6E6E6" stroke="#FFFFFF" stroke-width="0.5" stroke-miterlimit="3.9745" d="M1380.096,542.393
			c-0.587,0.093-1.053,0.35-1.45,0.706c4.341-0.031,8.681-0.128,13.02-0.348c0.502-0.025,0.99,0.031,1.46,0.145
			c0.438-0.059,0.886-0.081,1.34-0.061c5.702,0.247,11.404,0.359,17.108,0.422c1.566-0.006,3.132-0.019,4.698-0.049
			c3.145-0.06,6.31-0.046,9.458-0.176c-0.097-0.074-0.193-0.149-0.29-0.223c-7.56-5.752-14.733-11.916-23.441-15.947
			c-2.592-1.199-6.808-1.457-9.172-1.91c-5.58,2.981-8.722,4.047-13.456,5.036c2.437,2.767,4.973,5.43,7.637,7.983
			c-2.042,0.688-3.509-0.325-3.241,3.049C1383.885,542.497,1381.191,542.219,1380.096,542.393z"/>
	</g>
	<g id="az" transform="matrix(4.1453484,0,0,4.0668378,-4831.9096,-1805.3352)">
		<path id="path5796" fill="#E6E6E6" stroke="#FFFFFF" stroke-width="0.5" stroke-miterlimit="3.9745" d="M1422.682,452.821
			c1.927-1.477,3.103-1.242,4.824,0.232c1.086,0.93,1.914,0.398,3.117,0.696c1.009,0.249,1.396,0.924,2.271,0.487
			c1.955-0.976-1.568-2.795-1.923-2.996c-0.861-0.489-1.199-1.186-1.146-1.545c0.057-0.374,1.514-1.231,0.841-1.843
			c0.555-0.161,3.167,1.065,3.968,2.115c0.539,0.707,1.633,0.768,1.906,1.326c0.385,0.785,0.629,1.541,1.487,1.824
			c0.762,0.251,1.618,0.484,2.427,0.466c0.732-0.016,1.138-1.04,1.449-1.65c0.149-0.293,3.084-2.579,2.446-3.396
			c1.406,0.456,2.897,2.116,3.667,3.287c1.104,1.678,2.017,3.176,3.406,4.656c0.22,0.084,0.439,0.171,0.658,0.263
			c0.018,0.24,0.04,0.481,0.062,0.722c0.63,0.701,1.292,1.028,2.246,1.104c2.081,0.166,3.163,0.788,3.991,2.703
			c-0.749-1.039-2.854-1.484-3.934-0.781c-1.548,1.009-1.603,1.724-1.905,3.414c-0.272,1.517-0.016,2.536,0.303,3.926
			c0.114,0.495-0.616,1.01-0.668,1.597c-0.077,0.89,0.314,1.576-0.752,1.362c1.111-1.05-1.144-1.644-0.909-0.444
			c0.326,1.68-0.373,3.331,0.226,5.102c-0.486,0.014-1.289,0.083-1.717-0.216c-1.563-1.073-4.321-2.645-4.15-3.583
			c0.09-0.483,1.26-0.455,1.317-0.832c0.119-0.792-1.735-2.241,0.245-2.982c-1.736-1.995-3.267-3.345-5.043-1.471
			c-1.738,1.832-2.73,1.655-2.959,2.32c-1.422,2.11-2.163,2.25-3.203,2.903c-0.42-0.526-1.04-2.429,0.11-2.571
			c-0.31-0.379-1.741-1.023-1.49-1.662c0.11-0.277,0.695-0.436,0.256-0.772c-0.344-0.262-0.931-0.534-1.311-0.447
			c-1.396,0.323-3.264-2.141-4.877-3.091c0.751-0.361,1.819-0.072,2.23-0.995c0.438-0.978-0.822-1.256-1.48-1.585
			c-1.078-0.536-4.173-2.87-1.663-3.656c-0.597-1.625-2.472-1.639-3.684-2.561C1425.144,454.538,1422.839,453.211,1422.682,452.821"
			/>
		<path id="path5798" fill="#E6E6E6" stroke="#FFFFFF" stroke-width="0.5" stroke-miterlimit="3.9745" d="M1422.995,465.339
			c1.053-0.231,2.823-0.737,2.699,0.985c0.779-0.455,1.315,0.63,2.181,0.361c0.438-0.136,1.69-0.442,2.029,0.044
			c0.7,1.002-0.246,1.205,1.148,1.902c0.577,0.288,1.271,2.654,1.811,3.264c-3.899-0.225-3.966-0.633-5.795-2.13
			C1425.552,468.521,1423.779,467.208,1422.995,465.339"/>
	</g>
	<path id="am" fill="#E6E6E6" stroke="#FFFFFF" stroke-width="0.5" stroke-miterlimit="3.9745" d="M1023.67,40.358
		c2.901-0.189,11.172,1.965,16.036,0.058c6.95-2.724,15.255-1.425,22.584-1.344c-0.351-1.426,1.885-2.511,3.358-2.733
		c0.888,0.846,10.018,7.186,2.604,5.668c5.024,3.75,12.798,3.806,15.273,10.417c-9.766,3.002,1.108,11.55,5.356,14.037
		c2.248,1.315,7.314,2.184,7.916,5.169c1.171,5.803-6.302,4.88-9.493,6.156c3.297,1.235,15.833,13.868,19.224,12.535
		c1.72-0.677,9.816,1.83,6.753,3.631c-4.56,2.683,3.259,6.296,4.79,8.13c-4.772,0.572-2.074,8.417-0.332,10.557
		c-0.564,0.462-9.685,2.359-10.2,0.944c-2.988-4.766-4.674-11.812-9.685-14.565c-2.147-1.183-0.442-6.222-3.812-6.912
		c-2.111-0.431-3.717-0.358-6.825,0.511c-3.896,1.092-5.794-3.383-9.134-1.481c0.496-7.713-8.172-4.159-11.181-4.014
		c-4.203-3.078-9.701-10.742-15.539-10.569c-6.017,0.183-11.136-0.079-16.55-2.769c2.123-1.409,0.779-4.229-0.13-6.206
		c-1.687-3.676-1.779-4.467-0.4-7.769c2.579-6.166-8.506-8.32-10.614-19.515"/>
	<path fill="#E6E6E6" stroke="#FFFFFF" stroke-width="0.5" stroke-miterlimit="3.9745" d="M826.916,403.154
		c2.811,0.029,5.624,0.056,8.436,0.082c1.457-8.265,1.135-17.554,3.313-23.844c1.68-4.854,3.973-12.056,3.804-17.598
		c-0.176-6.213-0.36-8.662,0.192-12.561c-2.362,0.026-13.688,8.287-14.884,3.973c-2.137-7.707,13.557-15.018,2.574-13.623
		c-5.249,0.668-3.257-11.966-2.339-15.524c0.821-3.18,2.126-8.357,6.308-7.26c3.503,0.918,8.132,4.681,8.912,7.529
		c-0.551-7.138,4.326-31.574-2.198-31.904c-1.39,2.659-0.792,7.199-5.273,6.656c-1.894-0.229-5.87-1.976-7.5-0.247
		c-1.78,1.883,1.183,5.571-0.765,7.269c-2.603,2.278-2.693,7.465-3.319,10.618c-2.04,10.312-3.37,20.981-8.994,30.171
		c3.297,2.039-3.859,10.509-5.173,12.277L826.916,403.154z"/>
	<g id="lb" transform="matrix(4.1453484,0,0,4.0668378,-4707.9567,-1622.0245)">
		<path id="lb-" fill="#E6E6E6" stroke="#FFFFFF" stroke-width="0.5" stroke-miterlimit="3.9745" d="M1335.525,472.322
			c1.45-1.69,1.402-4.74,2.634-6.641c0.61-0.941-0.106-2.212,0.595-3.119c0.547-0.706,2.039-1.486,1.558-2.582
			c0.562,0.118,1.415,0.358,1.954,0.037c1.239-0.738,0.363,0.668,0.546,1.091c-0.023-0.057,0.816,0.256,0.903,0.342
			c0.625,0.602,0.274,0.468,0.745,1.334c1.007,1.842-2.209,2.137-0.928,3.694c-1.302-0.389-3.521,0.522-1.969,1.97
			c-0.578,0.132-2.54,2.036-2.627,2.626c-0.141-0.074-0.25-0.185-0.327-0.328c-0.217,0.424-0.229,0.927-0.46,1.359
			C1337.657,473.022,1336.239,471.747,1335.525,472.322"/>
	</g>
	<g id="ps" transform="matrix(4.1453484,0,0,4.0668378,-4707.9567,-1622.0245)">
		<g id="ps-" transform="translate(-29.9017,-45.0745)">
			<path id="path5472" fill="#E6E6E6" stroke="#FFFFFF" stroke-width="0.5" stroke-miterlimit="3.9745" d="M1360.632,531.314
				c0.633-0.624,1.222-1.311,1.641-2.1c0.785,0.496-0.881,2.615-1.249,2.997C1360.869,531.938,1360.737,531.61,1360.632,531.314"/>
			<path id="path5474" fill="#E6E6E6" stroke="#FFFFFF" stroke-width="0.5" stroke-miterlimit="3.9745" d="M1365.098,524.487
				c0.335-0.782,0.447-2.976,1.785-2.714c0.464,0.091,1.819,0.887,1.989,1.337c0.495,1.308,0.368,3.145,0.323,4.567
				c-0.03,0.978-0.044,2.031-0.56,2.273l-1.91,0.894c-0.906,0.424-1.81,0.455-1.421-0.967c0.103-0.376,1.443-2.359,1.633-2.294
				c-0.397-0.136-1.426,0.258-1.665-0.436C1364.849,525.923,1365.268,525.001,1365.098,524.487"/>
		</g>
	</g>
	<circle stroke="#FFFFFF" stroke-miterlimit="3.9745" cx="1079.563" cy="294.552" r="4.794"/>
	<circle stroke="#FFFFFF" stroke-miterlimit="3.9745" cx="865.088" cy="287.402" r="4.795"/>
	<circle stroke="#FFFFFF" stroke-miterlimit="3.9745" cx="689.93" cy="90.799" r="4.794"/>
	<g>
		<text transform="matrix(1 0 0 1 1063.1094 345.0181)" fill="#231F20" font-family="'CTBoomer-Book'" font-size="19.2154">IRAQ</text>
	</g>
	<g>
		<text transform="matrix(1 0 0 1 891.1045 236.1284)" fill="#231F20" font-family="'CTBoomer-Book'" font-size="19.2154">SYRIA</text>
	</g>
	<g>
		<text transform="matrix(1 0 0 1 783.3647 121.895)" fill="#231F20" font-family="'CTBoomer-Book'" font-size="19.2154">TURKEY</text>
	</g>
</g>
</svg>
